<svg width="239" height="55" viewBox="0 0 239 55" fill="none" xmlns="http://www.w3.org/2000/svg">
<rect width="239" height="55" fill="#1E1E1E"/>
<path d="M28.7306 25.3844C26.3811 25.3844 24.3413 26.5267 23.2335 28.2049C22.6845 29.037 22.346 29.9959 22.346 31.0254C22.346 34.1336 25.2095 36.6664 28.7306 36.6664C32.2517 36.6664 35.1152 34.1336 35.1152 31.0254C35.1152 29.9959 34.7799 29.037 34.2277 28.2049C33.12 26.5267 31.0833 25.3844 28.7306 25.3844Z" fill="#3B3C98"/>
<path d="M73.4227 25.3844C71.0731 25.3844 69.0333 26.5267 67.9256 28.2049C67.3765 29.037 67.0381 29.9959 67.0381 31.0254C67.0381 34.1336 69.9016 36.6664 73.4227 36.6664C76.9438 36.6664 79.8072 34.1336 79.8072 31.0254C79.8072 29.9959 79.472 29.037 78.9197 28.2049C77.812 26.5267 75.7754 25.3844 73.4227 25.3844Z" fill="#3B3C98"/>
<path d="M92.5764 19.7435V16.923L73.4227 12.0858L51.0766 0H15.9615V2.82049H35.1152V5.64099H0V8.46148H38.3075V11.282H6.38458V14.1025H22.346V16.923H15.9615V19.7435H3.19229V22.564H19.1537V25.3845H15.9615V28.2049H6.38458V31.0254H19.1537C19.1537 30.0326 19.3836 29.0906 19.7411 28.2049C21.0627 24.9275 24.5679 22.564 28.7306 22.564C32.8966 22.564 36.3985 24.9275 37.7201 28.2049C38.0745 29.0906 38.3075 30.0326 38.3075 31.0254H63.8458C63.8458 30.0326 64.0756 29.0906 64.4332 28.2049C65.7548 24.9275 69.2599 22.564 73.4227 22.564C77.5886 22.564 81.0906 24.9275 82.4122 28.2049C82.7665 29.0906 82.9995 30.0326 82.9995 31.0254H92.5764V28.2049H95.7687V19.7435H92.5764Z" fill="#3B3C98"/>
<path d="M113 30.2H113.9V32.36L115.74 34.2H122.18L113.2 23.62V20.86L115.06 19H122.92L124.32 20.4V18.8H125.22V23.8H124.32V21.64L122.48 19.8H116.64L125.62 30.38V33.14L123.76 35H115.3L113.9 33.6V35.2H113V30.2ZM144.209 34.2V35H135.929V34.2H138.069L136.389 29H130.849L129.149 34.2H131.189V35H126.829V34.2H128.189L133.129 19H137.909L142.849 34.2H144.209ZM136.129 28.2L133.609 20.48L131.109 28.2H136.129ZM161.882 19.8H160.282V35H154.882L147.302 19.8V34.2H148.902V35H144.802V34.2H146.402V19.8H144.802V19H151.802L159.382 34.2V19.8H157.782V19H161.882V19.8ZM168.873 34.2H170.273V35H162.673V34.2H164.273V19.8H162.673V19H170.273V19.8H168.873V34.2ZM179.633 34.2V35H173.293L169.573 27.38V26.6L175.093 19.8H173.313V19H178.233V19.8H176.193L170.693 26.6H174.533L178.233 34.2H179.633ZM182.501 35L180.441 32.94V21.06L182.501 19H191.481L193.541 21.06V32.94L191.481 35H182.501ZM185.041 19.8V34.2H188.941V19.8H185.041Z" fill="#232C82"/>
<path d="M177.58 53.2V54H169.3V53.2H171.44L169.76 48H164.22L162.52 53.2H164.56V54H160.2V53.2H161.56L166.5 38H171.28L176.22 53.2H177.58ZM169.5 47.2L166.98 39.48L164.48 47.2H169.5ZM193.733 38.8H192.133V51.94L190.073 54H182.033L179.973 51.94V38.8H178.373V38H186.173V38.8H184.573V53.2H189.633L191.233 51.6V38.8H189.633V38H193.733V38.8ZM196.236 42.6H195.336V38H208.936V42.6H208.036V38.8H204.436V53.2H206.036V54H198.236V53.2H199.836V38.8H196.236V42.6ZM213.001 54L210.941 51.94V40.06L213.001 38H221.981L224.041 40.06V51.94L221.981 54H213.001ZM215.541 38.8V53.2H219.441V38.8H215.541ZM226.039 49.2H226.939V51.36L228.779 53.2H235.219L226.239 42.62V39.86L228.099 38H235.959L237.359 39.4V37.8H238.259V42.8H237.359V40.64L235.519 38.8H229.679L238.659 49.38V52.14L236.799 54H228.339L226.939 52.6V54.2H226.039V49.2Z" fill="#1E1E1E"/>
</svg>
